<mxfile host="app.diagrams.net" agent="Mozilla/5.0 (Windows NT 10.0; Win64; x64) AppleWebKit/537.36 (KHTML, like Gecko) Chrome/136.0.0.0 Safari/537.36" version="27.0.5">
  <diagram name="Page-1" id="8378b5f6-a2b2-b727-a746-972ab9d02e00">
    <mxGraphModel dx="2107" dy="846" grid="1" gridSize="10" guides="1" tooltips="1" connect="1" arrows="1" fold="1" page="1" pageScale="1.5" pageWidth="1169" pageHeight="827" background="none" math="0" shadow="0">
      <root>
        <mxCell id="0" />
        <mxCell id="1" parent="0" />
        <mxCell id="7GXzpe08TrqEnxRHHlQo-3" value="" style="edgeStyle=orthogonalEdgeStyle;rounded=0;orthogonalLoop=1;jettySize=auto;html=1;entryX=0.5;entryY=0;entryDx=0;entryDy=0;exitX=1;exitY=0.5;exitDx=0;exitDy=0;" edge="1" parent="1" source="PKwba_ZCbJq4WHA7hHal-280" target="7GXzpe08TrqEnxRHHlQo-1">
          <mxGeometry relative="1" as="geometry">
            <Array as="points">
              <mxPoint x="190" y="378.83" />
              <mxPoint x="190" y="9.829999999999984" />
              <mxPoint x="740" y="9.829999999999984" />
            </Array>
          </mxGeometry>
        </mxCell>
        <mxCell id="7GXzpe08TrqEnxRHHlQo-11" value="" style="edgeStyle=orthogonalEdgeStyle;rounded=0;orthogonalLoop=1;jettySize=auto;html=1;exitX=1;exitY=0.5;exitDx=0;exitDy=0;" edge="1" parent="1" source="PKwba_ZCbJq4WHA7hHal-280" target="7GXzpe08TrqEnxRHHlQo-9">
          <mxGeometry relative="1" as="geometry">
            <Array as="points">
              <mxPoint x="220" y="378.83" />
              <mxPoint x="220" y="19.829999999999984" />
              <mxPoint x="510" y="19.829999999999984" />
            </Array>
          </mxGeometry>
        </mxCell>
        <mxCell id="PKwba_ZCbJq4WHA7hHal-279" value="Input" style="swimlane;html=1;fontStyle=0;childLayout=stackLayout;horizontal=1;startSize=26;fillColor=#ffe6cc;horizontalStack=0;resizeParent=1;resizeLast=0;collapsible=1;marginBottom=0;swimlaneFillColor=#ffffff;align=center;rounded=1;shadow=0;comic=0;labelBackgroundColor=none;strokeWidth=1;fontFamily=Verdana;fontSize=12;strokeColor=#d79b00;" parent="1" vertex="1">
          <mxGeometry x="10" y="340.08" width="160" height="110" as="geometry" />
        </mxCell>
        <mxCell id="PKwba_ZCbJq4WHA7hHal-280" value="20250508" style="text;html=1;strokeColor=none;fillColor=none;spacingLeft=4;spacingRight=4;whiteSpace=wrap;overflow=hidden;rotatable=0;points=[[0,0.5],[1,0.5]];portConstraint=eastwest;" parent="PKwba_ZCbJq4WHA7hHal-279" vertex="1">
          <mxGeometry y="26" width="160" height="26" as="geometry" />
        </mxCell>
        <mxCell id="PKwba_ZCbJq4WHA7hHal-288" value="20250508" style="swimlane;html=1;fontStyle=0;childLayout=stackLayout;horizontal=1;startSize=26;fillColor=#e0e0e0;horizontalStack=0;resizeParent=1;resizeLast=0;collapsible=1;marginBottom=0;swimlaneFillColor=#ffffff;align=center;rounded=1;shadow=0;comic=0;labelBackgroundColor=none;strokeWidth=1;fontFamily=Verdana;fontSize=12" parent="1" vertex="1" collapsed="1">
          <mxGeometry x="40" y="489.83" width="100" height="30" as="geometry">
            <mxRectangle x="10" y="212" width="160" height="164" as="alternateBounds" />
          </mxGeometry>
        </mxCell>
        <mxCell id="PKwba_ZCbJq4WHA7hHal-289" value="既設橋耐震性能の照査" style="text;html=1;spacingLeft=4;spacingRight=4;whiteSpace=wrap;overflow=hidden;rotatable=0;points=[[0,0.5],[1,0.5]];portConstraint=eastwest;fillColor=default;strokeColor=default;" parent="PKwba_ZCbJq4WHA7hHal-288" vertex="1">
          <mxGeometry y="26" width="160" height="74" as="geometry" />
        </mxCell>
        <mxCell id="PKwba_ZCbJq4WHA7hHal-328" value="Thông số:&lt;div&gt;+ Mặt cắt ngang&lt;/div&gt;&lt;div&gt;+ Cáp DUL dọc và ngang&lt;/div&gt;" style="text;html=1;strokeColor=none;fillColor=none;spacingLeft=4;spacingRight=4;whiteSpace=wrap;overflow=hidden;rotatable=0;points=[[0,0.5],[1,0.5]];portConstraint=eastwest;" parent="PKwba_ZCbJq4WHA7hHal-288" vertex="1">
          <mxGeometry y="100" width="160" height="64" as="geometry" />
        </mxCell>
        <mxCell id="NzCJ9FKKaEFCQdiTwYW6-28" value="" style="edgeStyle=orthogonalEdgeStyle;rounded=0;orthogonalLoop=1;jettySize=auto;html=1;entryX=0.5;entryY=0;entryDx=0;entryDy=0;" parent="1" source="PKwba_ZCbJq4WHA7hHal-297" target="NzCJ9FKKaEFCQdiTwYW6-26" edge="1">
          <mxGeometry relative="1" as="geometry" />
        </mxCell>
        <mxCell id="PKwba_ZCbJq4WHA7hHal-297" value="Results" style="swimlane;html=1;fontStyle=0;childLayout=stackLayout;horizontal=1;startSize=26;fillColor=#ffe6cc;horizontalStack=0;resizeParent=1;resizeLast=0;collapsible=1;marginBottom=0;swimlaneFillColor=#ffffff;align=center;rounded=1;shadow=0;comic=0;labelBackgroundColor=none;strokeWidth=1;fontFamily=Verdana;fontSize=12;strokeColor=#d79b00;" parent="1" vertex="1">
          <mxGeometry x="140" y="890" width="160" height="84" as="geometry" />
        </mxCell>
        <mxCell id="PKwba_ZCbJq4WHA7hHal-298" value="20250〇〇〇" style="text;html=1;strokeColor=none;fillColor=none;spacingLeft=4;spacingRight=4;whiteSpace=wrap;overflow=hidden;rotatable=0;points=[[0,0.5],[1,0.5]];portConstraint=eastwest;" parent="PKwba_ZCbJq4WHA7hHal-297" vertex="1">
          <mxGeometry y="26" width="160" height="26" as="geometry" />
        </mxCell>
        <mxCell id="PKwba_ZCbJq4WHA7hHal-310" style="edgeStyle=orthogonalEdgeStyle;html=1;labelBackgroundColor=none;startFill=0;startSize=8;endFill=1;endSize=8;fontFamily=Verdana;fontSize=12;rounded=0;exitX=0.5;exitY=1;exitDx=0;exitDy=0;" parent="1" source="PKwba_ZCbJq4WHA7hHal-279" target="PKwba_ZCbJq4WHA7hHal-288" edge="1">
          <mxGeometry relative="1" as="geometry" />
        </mxCell>
        <mxCell id="PKwba_ZCbJq4WHA7hHal-312" style="edgeStyle=orthogonalEdgeStyle;html=1;labelBackgroundColor=none;startFill=0;endFill=1;fontFamily=Verdana;fontSize=12;rounded=0;shape=flexArrow;fillColor=#ffe6cc;strokeColor=#d79b00;entryX=0.5;entryY=0;entryDx=0;entryDy=0;exitX=0.5;exitY=1;exitDx=0;exitDy=0;" parent="1" source="gtJMbeYiV31dxzH4l1Sz-7" target="PKwba_ZCbJq4WHA7hHal-297" edge="1">
          <mxGeometry relative="1" as="geometry">
            <Array as="points">
              <mxPoint x="620" y="940" />
              <mxPoint x="410" y="940" />
              <mxPoint x="410" y="850" />
              <mxPoint x="220" y="850" />
            </Array>
            <mxPoint x="1690" y="299.83" as="targetPoint" />
            <mxPoint x="1150" y="1249.83" as="sourcePoint" />
          </mxGeometry>
        </mxCell>
        <mxCell id="PKwba_ZCbJq4WHA7hHal-389" value="" style="edgeStyle=orthogonalEdgeStyle;rounded=0;orthogonalLoop=1;jettySize=auto;html=1;entryX=0.5;entryY=0;entryDx=0;entryDy=0;exitX=1;exitY=0.5;exitDx=0;exitDy=0;dashed=1;" parent="1" source="NJcOnecQ_KUzRi99oX8J-12" target="PKwba_ZCbJq4WHA7hHal-390" edge="1">
          <mxGeometry relative="1" as="geometry">
            <mxPoint x="940" y="579.8299999999999" as="targetPoint" />
            <Array as="points">
              <mxPoint x="980" y="369" />
              <mxPoint x="980" y="290" />
              <mxPoint x="1100" y="290" />
            </Array>
            <mxPoint x="700" y="395.33000000000015" as="sourcePoint" />
          </mxGeometry>
        </mxCell>
        <mxCell id="PKwba_ZCbJq4WHA7hHal-353" value="JT-KOHKA" style="swimlane;html=1;fontStyle=0;childLayout=stackLayout;horizontal=1;startSize=26;fillColor=#ffe6cc;horizontalStack=0;resizeParent=1;resizeLast=0;collapsible=1;marginBottom=0;swimlaneFillColor=#ffffff;align=center;rounded=1;shadow=0;comic=0;labelBackgroundColor=none;strokeWidth=1;fontFamily=Verdana;fontSize=12;strokeColor=#d79b00;" parent="1" vertex="1">
          <mxGeometry x="540" y="330.33" width="160" height="129.5" as="geometry">
            <mxRectangle x="540" y="0.5" width="70" height="30" as="alternateBounds" />
          </mxGeometry>
        </mxCell>
        <mxCell id="NJcOnecQ_KUzRi99oX8J-12" value="20250514" style="text;html=1;strokeColor=default;fillColor=none;spacingLeft=4;spacingRight=4;whiteSpace=wrap;overflow=hidden;rotatable=0;points=[[0,0.5],[1,0.5]];portConstraint=eastwest;labelBorderColor=none;labelBackgroundColor=none;textShadow=0;" parent="PKwba_ZCbJq4WHA7hHal-353" vertex="1">
          <mxGeometry y="26" width="160" height="26" as="geometry" />
        </mxCell>
        <mxCell id="7GXzpe08TrqEnxRHHlQo-46" value="20250〇〇〇" style="text;html=1;strokeColor=default;fillColor=none;spacingLeft=4;spacingRight=4;whiteSpace=wrap;overflow=hidden;rotatable=0;points=[[0,0.5],[1,0.5]];portConstraint=eastwest;labelBorderColor=none;labelBackgroundColor=none;textShadow=0;" vertex="1" parent="PKwba_ZCbJq4WHA7hHal-353">
          <mxGeometry y="52" width="160" height="26" as="geometry" />
        </mxCell>
        <mxCell id="NzCJ9FKKaEFCQdiTwYW6-13" value="" style="edgeStyle=orthogonalEdgeStyle;rounded=0;orthogonalLoop=1;jettySize=auto;html=1;exitX=1;exitY=0.5;exitDx=0;exitDy=0;entryX=0;entryY=0.5;entryDx=0;entryDy=0;" parent="1" source="gtJMbeYiV31dxzH4l1Sz-1" target="NzCJ9FKKaEFCQdiTwYW6-11" edge="1">
          <mxGeometry relative="1" as="geometry" />
        </mxCell>
        <mxCell id="NJcOnecQ_KUzRi99oX8J-6" value="" style="edgeStyle=orthogonalEdgeStyle;rounded=0;orthogonalLoop=1;jettySize=auto;html=1;dashed=1;flowAnimation=0;" parent="1" source="PKwba_ZCbJq4WHA7hHal-390" target="NJcOnecQ_KUzRi99oX8J-2" edge="1">
          <mxGeometry relative="1" as="geometry" />
        </mxCell>
        <mxCell id="7GXzpe08TrqEnxRHHlQo-40" value="" style="edgeStyle=orthogonalEdgeStyle;rounded=0;orthogonalLoop=1;jettySize=auto;html=1;" edge="1" parent="1" source="PKwba_ZCbJq4WHA7hHal-390" target="gtJMbeYiV31dxzH4l1Sz-18">
          <mxGeometry relative="1" as="geometry" />
        </mxCell>
        <mxCell id="PKwba_ZCbJq4WHA7hHal-390" value="TDAP" style="swimlane;html=1;fontStyle=0;childLayout=stackLayout;horizontal=1;startSize=26;fillColor=#ffe6cc;horizontalStack=0;resizeParent=1;resizeLast=0;collapsible=1;marginBottom=0;swimlaneFillColor=#ffffff;align=center;rounded=1;shadow=0;comic=0;labelBackgroundColor=none;strokeWidth=1;fontFamily=Verdana;fontSize=12;strokeColor=#d79b00;" parent="1" vertex="1" collapsed="1">
          <mxGeometry x="1065" y="356.33" width="70" height="30" as="geometry">
            <mxRectangle x="1020" y="349.83" width="160" height="150" as="alternateBounds" />
          </mxGeometry>
        </mxCell>
        <mxCell id="gtJMbeYiV31dxzH4l1Sz-1" value="20250508" style="text;html=1;strokeColor=default;fillColor=none;spacingLeft=4;spacingRight=4;whiteSpace=wrap;overflow=hidden;rotatable=0;points=[[0,0.5],[1,0.5]];portConstraint=eastwest;" parent="PKwba_ZCbJq4WHA7hHal-390" vertex="1">
          <mxGeometry y="26" width="160" height="26" as="geometry" />
        </mxCell>
        <mxCell id="NJcOnecQ_KUzRi99oX8J-1" value="20250509" style="text;html=1;strokeColor=default;fillColor=none;spacingLeft=4;spacingRight=4;whiteSpace=wrap;overflow=hidden;rotatable=0;points=[[0,0.5],[1,0.5]];portConstraint=eastwest;" parent="PKwba_ZCbJq4WHA7hHal-390" vertex="1">
          <mxGeometry y="52" width="160" height="26" as="geometry" />
        </mxCell>
        <mxCell id="7GXzpe08TrqEnxRHHlQo-33" value="20250512" style="text;html=1;strokeColor=default;fillColor=none;spacingLeft=4;spacingRight=4;whiteSpace=wrap;overflow=hidden;rotatable=0;points=[[0,0.5],[1,0.5]];portConstraint=eastwest;" vertex="1" parent="PKwba_ZCbJq4WHA7hHal-390">
          <mxGeometry y="78" width="160" height="26" as="geometry" />
        </mxCell>
        <mxCell id="PKwba_ZCbJq4WHA7hHal-391" value="20250515" style="text;html=1;strokeColor=default;fillColor=none;spacingLeft=4;spacingRight=4;whiteSpace=wrap;overflow=hidden;rotatable=0;points=[[0,0.5],[1,0.5]];portConstraint=eastwest;" parent="PKwba_ZCbJq4WHA7hHal-390" vertex="1">
          <mxGeometry y="104" width="160" height="26" as="geometry" />
        </mxCell>
        <mxCell id="gtJMbeYiV31dxzH4l1Sz-14" value="" style="edgeStyle=orthogonalEdgeStyle;rounded=0;orthogonalLoop=1;jettySize=auto;html=1;shape=flexArrow;fillColor=#ffe6cc;strokeColor=#d79b00;exitX=0.5;exitY=1;exitDx=0;exitDy=0;" parent="1" source="PKwba_ZCbJq4WHA7hHal-353" target="gtJMbeYiV31dxzH4l1Sz-7" edge="1">
          <mxGeometry relative="1" as="geometry">
            <mxPoint x="620" y="859.8299999999995" as="sourcePoint" />
          </mxGeometry>
        </mxCell>
        <mxCell id="a8TJAOsNtDyzsTmG-Was-4" value="" style="edgeStyle=orthogonalEdgeStyle;rounded=0;orthogonalLoop=1;jettySize=auto;html=1;" parent="1" source="NzCJ9FKKaEFCQdiTwYW6-10" target="a8TJAOsNtDyzsTmG-Was-2" edge="1">
          <mxGeometry relative="1" as="geometry" />
        </mxCell>
        <mxCell id="NzCJ9FKKaEFCQdiTwYW6-10" value="20250508" style="swimlane;html=1;fontStyle=0;childLayout=stackLayout;horizontal=1;startSize=26;fillColor=#e0e0e0;horizontalStack=0;resizeParent=1;resizeLast=0;collapsible=1;marginBottom=0;swimlaneFillColor=#ffffff;align=center;rounded=1;shadow=0;comic=0;labelBackgroundColor=none;strokeWidth=1;fontFamily=Verdana;fontSize=12" parent="1" vertex="1" collapsed="1">
          <mxGeometry x="1220" y="319.83" width="70" height="30" as="geometry">
            <mxRectangle x="1270" y="-22" width="160" height="80" as="alternateBounds" />
          </mxGeometry>
        </mxCell>
        <mxCell id="NzCJ9FKKaEFCQdiTwYW6-11" value="TDAPマニュアル" style="text;html=1;strokeColor=none;fillColor=none;spacingLeft=4;spacingRight=4;whiteSpace=wrap;overflow=hidden;rotatable=0;points=[[0,0.5],[1,0.5]];portConstraint=eastwest;" parent="NzCJ9FKKaEFCQdiTwYW6-10" vertex="1">
          <mxGeometry y="26" width="160" height="26" as="geometry" />
        </mxCell>
        <mxCell id="NzCJ9FKKaEFCQdiTwYW6-26" value="20250〇〇〇" style="swimlane;html=1;fontStyle=0;childLayout=stackLayout;horizontal=1;startSize=26;fillColor=#99FFFF;horizontalStack=0;resizeParent=1;resizeLast=0;collapsible=1;marginBottom=0;swimlaneFillColor=#ffffff;align=center;rounded=1;shadow=0;comic=0;labelBackgroundColor=none;strokeWidth=1;fontFamily=Verdana;fontSize=12;strokeColor=#CCFFFF;" parent="1" vertex="1">
          <mxGeometry x="140" y="1030" width="160" height="120" as="geometry">
            <mxRectangle x="2230" y="80" width="100" height="30" as="alternateBounds" />
          </mxGeometry>
        </mxCell>
        <mxCell id="NzCJ9FKKaEFCQdiTwYW6-27" value="結果:&lt;div&gt;1. 総括表まとめて&lt;/div&gt;&lt;div&gt;2. Docu計算書&lt;/div&gt;" style="text;html=1;strokeColor=none;fillColor=none;spacingLeft=4;spacingRight=4;whiteSpace=wrap;overflow=hidden;rotatable=0;points=[[0,0.5],[1,0.5]];portConstraint=eastwest;" parent="NzCJ9FKKaEFCQdiTwYW6-26" vertex="1">
          <mxGeometry y="26" width="160" height="74" as="geometry" />
        </mxCell>
        <mxCell id="a8TJAOsNtDyzsTmG-Was-2" value="TDAPマニュアル" style="swimlane;html=1;childLayout=stackLayout;horizontal=1;startSize=26;fillColor=#e0e0e0;horizontalStack=0;resizeParent=1;resizeLast=0;collapsible=1;marginBottom=0;swimlaneFillColor=#ffffff;align=center;rounded=1;shadow=0;comic=0;strokeWidth=1;" parent="1" vertex="1" collapsed="1">
          <mxGeometry x="1400" y="270" width="70" height="30" as="geometry">
            <mxRectangle x="1510" y="-22" width="160" height="80" as="alternateBounds" />
          </mxGeometry>
        </mxCell>
        <mxCell id="a8TJAOsNtDyzsTmG-Was-3" value="出力：.lst (.txt)" style="text;html=1;strokeColor=none;fillColor=none;spacingLeft=4;spacingRight=4;whiteSpace=wrap;overflow=hidden;rotatable=0;points=[[0,0.5],[1,0.5]];portConstraint=eastwest;" parent="a8TJAOsNtDyzsTmG-Was-2" vertex="1">
          <mxGeometry y="26" width="160" height="26" as="geometry" />
        </mxCell>
        <mxCell id="gtJMbeYiV31dxzH4l1Sz-7" value="3. 動的解析結果" style="swimlane;html=1;fontStyle=0;childLayout=stackLayout;horizontal=1;startSize=26;fillColor=#ffe6cc;horizontalStack=0;resizeParent=1;resizeLast=0;collapsible=1;marginBottom=0;swimlaneFillColor=#ffffff;align=center;rounded=1;shadow=0;comic=0;labelBackgroundColor=none;strokeWidth=1;fontFamily=Verdana;fontSize=12;strokeColor=#d79b00;" parent="1" vertex="1">
          <mxGeometry x="515" y="559.8299999999999" width="210" height="280" as="geometry">
            <mxRectangle x="420" y="20" width="70" height="30" as="alternateBounds" />
          </mxGeometry>
        </mxCell>
        <mxCell id="gtJMbeYiV31dxzH4l1Sz-8" value="1. 減衰の評価　（Rayleigh減衰）" style="text;html=1;strokeColor=none;fillColor=none;spacingLeft=4;spacingRight=4;whiteSpace=wrap;overflow=hidden;rotatable=0;points=[[0,0.5],[1,0.5]];portConstraint=eastwest;" parent="gtJMbeYiV31dxzH4l1Sz-7" vertex="1">
          <mxGeometry y="26" width="210" height="26" as="geometry" />
        </mxCell>
        <mxCell id="gtJMbeYiV31dxzH4l1Sz-9" value="2. 安全性の照査&lt;div&gt;2.1. 降伏照査&lt;/div&gt;&lt;div&gt;2.2. 最大応答曲率の照査&lt;/div&gt;&lt;div&gt;2.3. せん断力に対する照査&lt;/div&gt;&lt;div&gt;2.4. 残留変位の照査&lt;/div&gt;&lt;div&gt;2.5.&amp;nbsp;&lt;span style=&quot;background-color: transparent; color: light-dark(rgb(0, 0, 0), rgb(255, 255, 255));&quot;&gt;主桁の照査&lt;/span&gt;&lt;/div&gt;" style="text;html=1;spacingLeft=4;spacingRight=4;whiteSpace=wrap;overflow=hidden;rotatable=0;points=[[0,0.5],[1,0.5]];portConstraint=eastwest;" parent="gtJMbeYiV31dxzH4l1Sz-7" vertex="1">
          <mxGeometry y="52" width="210" height="108" as="geometry" />
        </mxCell>
        <mxCell id="gtJMbeYiV31dxzH4l1Sz-15" value="+ 最大応答変位Ⅱa, Ⅱb&lt;div&gt;+ 曲率照査 Ⅱb (φmax &amp;lt; φu）&lt;/div&gt;&lt;div&gt;+ 段落し部曲率照査&lt;/div&gt;&lt;div&gt;+ 段落し部損傷の判定&lt;/div&gt;&lt;div&gt;+ 段落し部せん断照査&lt;/div&gt;" style="text;html=1;strokeColor=#d79b00;fillColor=#ffe6cc;spacingLeft=4;spacingRight=4;whiteSpace=wrap;overflow=hidden;rotatable=0;points=[[0,0.5],[1,0.5]];portConstraint=eastwest;" parent="gtJMbeYiV31dxzH4l1Sz-7" vertex="1">
          <mxGeometry y="160" width="210" height="108" as="geometry" />
        </mxCell>
        <mxCell id="gtJMbeYiV31dxzH4l1Sz-17" value="20250509" style="swimlane;html=1;fontStyle=0;childLayout=stackLayout;horizontal=1;startSize=26;fillColor=#e0e0e0;horizontalStack=0;resizeParent=1;resizeLast=0;collapsible=1;marginBottom=0;swimlaneFillColor=#ffffff;align=center;rounded=1;shadow=0;comic=0;labelBackgroundColor=none;strokeWidth=1;fontFamily=Verdana;fontSize=12" parent="1" vertex="1" collapsed="1">
          <mxGeometry x="1220" y="380.08" width="70" height="30" as="geometry">
            <mxRectangle x="1270" y="50.25" width="160" height="80" as="alternateBounds" />
          </mxGeometry>
        </mxCell>
        <mxCell id="gtJMbeYiV31dxzH4l1Sz-18" value="節点修正" style="text;html=1;strokeColor=none;fillColor=none;spacingLeft=4;spacingRight=4;whiteSpace=wrap;overflow=hidden;rotatable=0;points=[[0,0.5],[1,0.5]];portConstraint=eastwest;" parent="gtJMbeYiV31dxzH4l1Sz-17" vertex="1">
          <mxGeometry y="26" width="160" height="26" as="geometry" />
        </mxCell>
        <mxCell id="NJcOnecQ_KUzRi99oX8J-11" value="" style="edgeStyle=orthogonalEdgeStyle;rounded=0;orthogonalLoop=1;jettySize=auto;html=1;exitX=1;exitY=0.5;exitDx=0;exitDy=0;" parent="1" source="NJcOnecQ_KUzRi99oX8J-3" target="NJcOnecQ_KUzRi99oX8J-7" edge="1">
          <mxGeometry relative="1" as="geometry">
            <Array as="points">
              <mxPoint x="1220" y="629" />
              <mxPoint x="1220" y="532" />
            </Array>
          </mxGeometry>
        </mxCell>
        <mxCell id="NJcOnecQ_KUzRi99oX8J-22" value="" style="edgeStyle=orthogonalEdgeStyle;rounded=0;orthogonalLoop=1;jettySize=auto;html=1;entryX=0;entryY=0.75;entryDx=0;entryDy=0;exitX=0.5;exitY=1;exitDx=0;exitDy=0;dashed=1;" parent="1" source="NJcOnecQ_KUzRi99oX8J-23" target="PKwba_ZCbJq4WHA7hHal-353" edge="1">
          <mxGeometry relative="1" as="geometry">
            <mxPoint x="1120" y="959.8299999999999" as="sourcePoint" />
            <mxPoint x="1150" y="773.8299999999999" as="targetPoint" />
            <Array as="points">
              <mxPoint x="1100" y="900" />
              <mxPoint x="500" y="900" />
              <mxPoint x="500" y="428" />
            </Array>
          </mxGeometry>
        </mxCell>
        <mxCell id="NJcOnecQ_KUzRi99oX8J-27" value="" style="edgeStyle=orthogonalEdgeStyle;rounded=0;orthogonalLoop=1;jettySize=auto;html=1;dashed=1;exitX=1;exitY=0.5;exitDx=0;exitDy=0;" parent="1" source="NJcOnecQ_KUzRi99oX8J-4" target="NJcOnecQ_KUzRi99oX8J-23" edge="1">
          <mxGeometry relative="1" as="geometry" />
        </mxCell>
        <mxCell id="NJcOnecQ_KUzRi99oX8J-2" value="静的解析のみ" style="swimlane;html=1;fontStyle=0;childLayout=stackLayout;horizontal=1;startSize=26;fillColor=#ffe6cc;horizontalStack=0;resizeParent=1;resizeLast=0;collapsible=1;marginBottom=0;swimlaneFillColor=#ffffff;align=center;rounded=1;shadow=0;comic=0;labelBackgroundColor=none;strokeWidth=1;fontFamily=Verdana;fontSize=12;strokeColor=#d79b00;" parent="1" vertex="1">
          <mxGeometry x="1020" y="589.8299999999999" width="160" height="104" as="geometry">
            <mxRectangle x="1070" y="260" width="70" height="30" as="alternateBounds" />
          </mxGeometry>
        </mxCell>
        <mxCell id="NJcOnecQ_KUzRi99oX8J-3" value="20250512" style="text;html=1;strokeColor=default;fillColor=none;spacingLeft=4;spacingRight=4;whiteSpace=wrap;overflow=hidden;rotatable=0;points=[[0,0.5],[1,0.5]];portConstraint=eastwest;" parent="NJcOnecQ_KUzRi99oX8J-2" vertex="1">
          <mxGeometry y="26" width="160" height="26" as="geometry" />
        </mxCell>
        <mxCell id="NJcOnecQ_KUzRi99oX8J-4" value="20250515" style="text;html=1;strokeColor=default;fillColor=none;spacingLeft=4;spacingRight=4;whiteSpace=wrap;overflow=hidden;rotatable=0;points=[[0,0.5],[1,0.5]];portConstraint=eastwest;" parent="NJcOnecQ_KUzRi99oX8J-2" vertex="1">
          <mxGeometry y="52" width="160" height="26" as="geometry" />
        </mxCell>
        <mxCell id="NJcOnecQ_KUzRi99oX8J-7" value="20250512" style="swimlane;html=1;fontStyle=0;childLayout=stackLayout;horizontal=1;startSize=26;fillColor=#dae8fc;horizontalStack=0;resizeParent=1;resizeLast=0;collapsible=1;marginBottom=0;swimlaneFillColor=#ffffff;align=center;rounded=1;shadow=0;comic=0;labelBackgroundColor=none;strokeWidth=1;fontFamily=Verdana;fontSize=12;strokeColor=#6c8ebf;" parent="1" vertex="1">
          <mxGeometry x="1250" y="479.99999999999994" width="160" height="104" as="geometry">
            <mxRectangle x="420" y="20" width="70" height="30" as="alternateBounds" />
          </mxGeometry>
        </mxCell>
        <mxCell id="NJcOnecQ_KUzRi99oX8J-8" value="算出方法を調べる" style="text;html=1;strokeColor=none;fillColor=none;spacingLeft=4;spacingRight=4;whiteSpace=wrap;overflow=hidden;rotatable=0;points=[[0,0.5],[1,0.5]];portConstraint=eastwest;" parent="NJcOnecQ_KUzRi99oX8J-7" vertex="1">
          <mxGeometry y="26" width="160" height="26" as="geometry" />
        </mxCell>
        <mxCell id="NJcOnecQ_KUzRi99oX8J-13" value="20250514" style="swimlane;html=1;fontStyle=0;childLayout=stackLayout;horizontal=1;startSize=26;horizontalStack=0;resizeParent=1;resizeLast=0;collapsible=1;marginBottom=0;swimlaneFillColor=#ffffff;align=center;rounded=1;shadow=0;comic=0;labelBackgroundColor=none;strokeWidth=1;fontFamily=Verdana;fontSize=12;fillColor=#dae8fc;strokeColor=#6c8ebf;" parent="1" vertex="1">
          <mxGeometry x="280" y="330.33" width="200" height="129.5" as="geometry">
            <mxRectangle x="420" y="20" width="70" height="30" as="alternateBounds" />
          </mxGeometry>
        </mxCell>
        <mxCell id="NJcOnecQ_KUzRi99oX8J-17" value="完成モデルを受領しました。" style="text;html=1;strokeColor=none;fillColor=none;spacingLeft=4;spacingRight=4;whiteSpace=wrap;overflow=hidden;rotatable=0;points=[[0,0.5],[1,0.5]];portConstraint=eastwest;" parent="NJcOnecQ_KUzRi99oX8J-13" vertex="1">
          <mxGeometry y="26" width="200" height="26" as="geometry" />
        </mxCell>
        <mxCell id="NJcOnecQ_KUzRi99oX8J-14" value="ナタさんチェックしたモデル" style="text;html=1;strokeColor=none;fillColor=none;spacingLeft=4;spacingRight=4;whiteSpace=wrap;overflow=hidden;rotatable=0;points=[[0,0.5],[1,0.5]];portConstraint=eastwest;sketch=1;curveFitting=1;jiggle=2;" parent="NJcOnecQ_KUzRi99oX8J-13" vertex="1">
          <mxGeometry y="52" width="200" height="26" as="geometry" />
        </mxCell>
        <mxCell id="NJcOnecQ_KUzRi99oX8J-23" value="20250515" style="swimlane;html=1;fontStyle=0;childLayout=stackLayout;horizontal=1;startSize=26;fillColor=#ffe6cc;horizontalStack=0;resizeParent=1;resizeLast=0;collapsible=1;marginBottom=0;swimlaneFillColor=#ffffff;align=center;rounded=1;shadow=0;comic=0;labelBackgroundColor=none;strokeWidth=1;fontFamily=Verdana;fontSize=12;strokeColor=#d79b00;" parent="1" vertex="1">
          <mxGeometry x="1020" y="739.8299999999999" width="160" height="100" as="geometry">
            <mxRectangle x="420" y="20" width="70" height="30" as="alternateBounds" />
          </mxGeometry>
        </mxCell>
        <mxCell id="NJcOnecQ_KUzRi99oX8J-24" value="許容変位" style="text;html=1;strokeColor=default;fillColor=none;spacingLeft=4;spacingRight=4;whiteSpace=wrap;overflow=hidden;rotatable=0;points=[[0,0.5],[1,0.5]];portConstraint=eastwest;" parent="NJcOnecQ_KUzRi99oX8J-23" vertex="1">
          <mxGeometry y="26" width="160" height="26" as="geometry" />
        </mxCell>
        <mxCell id="NJcOnecQ_KUzRi99oX8J-25" value="降伏変位" style="text;html=1;strokeColor=default;fillColor=none;spacingLeft=4;spacingRight=4;whiteSpace=wrap;overflow=hidden;rotatable=0;points=[[0,0.5],[1,0.5]];portConstraint=eastwest;" parent="NJcOnecQ_KUzRi99oX8J-23" vertex="1">
          <mxGeometry y="52" width="160" height="26" as="geometry" />
        </mxCell>
        <mxCell id="7GXzpe08TrqEnxRHHlQo-6" value="" style="edgeStyle=orthogonalEdgeStyle;rounded=0;orthogonalLoop=1;jettySize=auto;html=1;entryX=0.5;entryY=0;entryDx=0;entryDy=0;" edge="1" parent="1" source="7GXzpe08TrqEnxRHHlQo-1" target="PKwba_ZCbJq4WHA7hHal-353">
          <mxGeometry relative="1" as="geometry">
            <mxPoint x="620" y="289.83" as="targetPoint" />
            <Array as="points">
              <mxPoint x="740" y="269.83" />
              <mxPoint x="620" y="269.83" />
            </Array>
          </mxGeometry>
        </mxCell>
        <mxCell id="7GXzpe08TrqEnxRHHlQo-32" value="" style="edgeStyle=orthogonalEdgeStyle;rounded=0;orthogonalLoop=1;jettySize=auto;html=1;exitX=1;exitY=0.5;exitDx=0;exitDy=0;" edge="1" parent="1" source="7GXzpe08TrqEnxRHHlQo-8" target="7GXzpe08TrqEnxRHHlQo-28">
          <mxGeometry relative="1" as="geometry" />
        </mxCell>
        <mxCell id="7GXzpe08TrqEnxRHHlQo-1" value="PC Box" style="swimlane;html=1;fontStyle=0;childLayout=stackLayout;horizontal=1;startSize=26;fillColor=#ffe6cc;horizontalStack=0;resizeParent=1;resizeLast=0;collapsible=1;marginBottom=0;swimlaneFillColor=#ffffff;align=center;rounded=1;shadow=0;comic=0;labelBackgroundColor=none;strokeWidth=1;fontFamily=Verdana;fontSize=12;strokeColor=#d79b00;" vertex="1" parent="1">
          <mxGeometry x="650" y="127.82999999999998" width="180" height="110" as="geometry" />
        </mxCell>
        <mxCell id="7GXzpe08TrqEnxRHHlQo-7" value="＋初期断面" style="text;html=1;strokeColor=none;fillColor=none;spacingLeft=4;spacingRight=4;whiteSpace=wrap;overflow=hidden;rotatable=0;points=[[0,0.5],[1,0.5]];portConstraint=eastwest;" vertex="1" parent="7GXzpe08TrqEnxRHHlQo-1">
          <mxGeometry y="26" width="180" height="26" as="geometry" />
        </mxCell>
        <mxCell id="7GXzpe08TrqEnxRHHlQo-8" value="＋曲げモーメント、せん断耐力" style="text;html=1;strokeColor=none;fillColor=none;spacingLeft=4;spacingRight=4;whiteSpace=wrap;overflow=hidden;rotatable=0;points=[[0,0.5],[1,0.5]];portConstraint=eastwest;" vertex="1" parent="7GXzpe08TrqEnxRHHlQo-1">
          <mxGeometry y="52" width="180" height="26" as="geometry" />
        </mxCell>
        <mxCell id="7GXzpe08TrqEnxRHHlQo-2" value="＋非線形特性（Mφ）" style="text;html=1;strokeColor=none;fillColor=none;spacingLeft=4;spacingRight=4;whiteSpace=wrap;overflow=hidden;rotatable=0;points=[[0,0.5],[1,0.5]];portConstraint=eastwest;" vertex="1" parent="7GXzpe08TrqEnxRHHlQo-1">
          <mxGeometry y="78" width="180" height="26" as="geometry" />
        </mxCell>
        <mxCell id="7GXzpe08TrqEnxRHHlQo-18" value="" style="edgeStyle=orthogonalEdgeStyle;rounded=0;orthogonalLoop=1;jettySize=auto;html=1;entryX=0.5;entryY=0;entryDx=0;entryDy=0;" edge="1" parent="1" source="7GXzpe08TrqEnxRHHlQo-9" target="PKwba_ZCbJq4WHA7hHal-353">
          <mxGeometry relative="1" as="geometry">
            <mxPoint x="510" y="209.82999999999998" as="targetPoint" />
            <Array as="points">
              <mxPoint x="510" y="269.83" />
              <mxPoint x="620" y="269.83" />
            </Array>
          </mxGeometry>
        </mxCell>
        <mxCell id="7GXzpe08TrqEnxRHHlQo-22" value="" style="edgeStyle=orthogonalEdgeStyle;rounded=0;orthogonalLoop=1;jettySize=auto;html=1;entryX=0.5;entryY=0;entryDx=0;entryDy=0;exitX=0.5;exitY=1;exitDx=0;exitDy=0;" edge="1" parent="1" source="7GXzpe08TrqEnxRHHlQo-19" target="PKwba_ZCbJq4WHA7hHal-353">
          <mxGeometry relative="1" as="geometry">
            <Array as="points">
              <mxPoint x="330" y="269.83" />
              <mxPoint x="620" y="269.83" />
            </Array>
          </mxGeometry>
        </mxCell>
        <mxCell id="7GXzpe08TrqEnxRHHlQo-9" value="Juntos" style="swimlane;html=1;fontStyle=0;childLayout=stackLayout;horizontal=1;startSize=26;fillColor=#ffe6cc;horizontalStack=0;resizeParent=1;resizeLast=0;collapsible=1;marginBottom=0;swimlaneFillColor=#ffffff;align=center;rounded=1;shadow=0;comic=0;labelBackgroundColor=none;strokeWidth=1;fontFamily=Verdana;fontSize=12;strokeColor=#d79b00;" vertex="1" parent="1">
          <mxGeometry x="430" y="127.82999999999998" width="160" height="90" as="geometry" />
        </mxCell>
        <mxCell id="7GXzpe08TrqEnxRHHlQo-12" value="＋骨組みモデル" style="text;html=1;strokeColor=none;fillColor=none;spacingLeft=4;spacingRight=4;whiteSpace=wrap;overflow=hidden;rotatable=0;points=[[0,0.5],[1,0.5]];portConstraint=eastwest;" vertex="1" parent="7GXzpe08TrqEnxRHHlQo-9">
          <mxGeometry y="26" width="160" height="26" as="geometry" />
        </mxCell>
        <mxCell id="7GXzpe08TrqEnxRHHlQo-13" value="＋荷重" style="text;html=1;strokeColor=none;fillColor=none;spacingLeft=4;spacingRight=4;whiteSpace=wrap;overflow=hidden;rotatable=0;points=[[0,0.5],[1,0.5]];portConstraint=eastwest;" vertex="1" parent="7GXzpe08TrqEnxRHHlQo-9">
          <mxGeometry y="52" width="160" height="26" as="geometry" />
        </mxCell>
        <mxCell id="7GXzpe08TrqEnxRHHlQo-19" value="つよし設計" style="swimlane;html=1;fontStyle=0;childLayout=stackLayout;horizontal=1;startSize=26;fillColor=#ffe6cc;horizontalStack=0;resizeParent=1;resizeLast=0;collapsible=1;marginBottom=0;swimlaneFillColor=#ffffff;align=center;rounded=1;shadow=0;comic=0;labelBackgroundColor=none;strokeWidth=1;fontFamily=Verdana;fontSize=12;strokeColor=#d79b00;" vertex="1" parent="1">
          <mxGeometry x="250" y="69.82999999999998" width="160" height="170" as="geometry" />
        </mxCell>
        <mxCell id="7GXzpe08TrqEnxRHHlQo-20" value="下部工情報：" style="text;html=1;strokeColor=none;fillColor=none;spacingLeft=4;spacingRight=4;whiteSpace=wrap;overflow=hidden;rotatable=0;points=[[0,0.5],[1,0.5]];portConstraint=eastwest;" vertex="1" parent="7GXzpe08TrqEnxRHHlQo-19">
          <mxGeometry y="26" width="160" height="26" as="geometry" />
        </mxCell>
        <mxCell id="7GXzpe08TrqEnxRHHlQo-23" value="＋断面データ" style="text;html=1;strokeColor=none;fillColor=none;spacingLeft=4;spacingRight=4;whiteSpace=wrap;overflow=hidden;rotatable=0;points=[[0,0.5],[1,0.5]];portConstraint=eastwest;" vertex="1" parent="7GXzpe08TrqEnxRHHlQo-19">
          <mxGeometry y="52" width="160" height="26" as="geometry" />
        </mxCell>
        <mxCell id="7GXzpe08TrqEnxRHHlQo-24" value="＋橋脚形状" style="text;html=1;strokeColor=none;fillColor=none;spacingLeft=4;spacingRight=4;whiteSpace=wrap;overflow=hidden;rotatable=0;points=[[0,0.5],[1,0.5]];portConstraint=eastwest;" vertex="1" parent="7GXzpe08TrqEnxRHHlQo-19">
          <mxGeometry y="78" width="160" height="26" as="geometry" />
        </mxCell>
        <mxCell id="7GXzpe08TrqEnxRHHlQo-25" value="＋フーチング" style="text;html=1;strokeColor=none;fillColor=none;spacingLeft=4;spacingRight=4;whiteSpace=wrap;overflow=hidden;rotatable=0;points=[[0,0.5],[1,0.5]];portConstraint=eastwest;" vertex="1" parent="7GXzpe08TrqEnxRHHlQo-19">
          <mxGeometry y="104" width="160" height="26" as="geometry" />
        </mxCell>
        <mxCell id="7GXzpe08TrqEnxRHHlQo-21" value="＋&lt;span data-teams=&quot;true&quot;&gt;支持条件&lt;/span&gt;" style="text;html=1;strokeColor=none;fillColor=none;spacingLeft=4;spacingRight=4;whiteSpace=wrap;overflow=hidden;rotatable=0;points=[[0,0.5],[1,0.5]];portConstraint=eastwest;" vertex="1" parent="7GXzpe08TrqEnxRHHlQo-19">
          <mxGeometry y="130" width="160" height="26" as="geometry" />
        </mxCell>
        <mxCell id="7GXzpe08TrqEnxRHHlQo-26" value="" style="edgeStyle=orthogonalEdgeStyle;rounded=0;orthogonalLoop=1;jettySize=auto;html=1;entryX=0.5;entryY=0;entryDx=0;entryDy=0;" edge="1" parent="1" source="PKwba_ZCbJq4WHA7hHal-280" target="7GXzpe08TrqEnxRHHlQo-19">
          <mxGeometry relative="1" as="geometry">
            <Array as="points">
              <mxPoint x="240" y="378.83" />
              <mxPoint x="240" y="49.829999999999984" />
              <mxPoint x="330" y="49.829999999999984" />
            </Array>
          </mxGeometry>
        </mxCell>
        <mxCell id="7GXzpe08TrqEnxRHHlQo-43" value="" style="edgeStyle=orthogonalEdgeStyle;rounded=0;orthogonalLoop=1;jettySize=auto;html=1;entryX=0;entryY=0.75;entryDx=0;entryDy=0;dashed=1;" edge="1" parent="1" source="7GXzpe08TrqEnxRHHlQo-28" target="PKwba_ZCbJq4WHA7hHal-353">
          <mxGeometry relative="1" as="geometry">
            <mxPoint x="440" y="869.8299999999999" as="targetPoint" />
            <Array as="points">
              <mxPoint x="860" y="899.8299999999999" />
              <mxPoint x="500" y="899.8299999999999" />
              <mxPoint x="500" y="427.83" />
            </Array>
          </mxGeometry>
        </mxCell>
        <mxCell id="7GXzpe08TrqEnxRHHlQo-28" value="初期変位 δ0E" style="swimlane;html=1;fontStyle=0;childLayout=stackLayout;horizontal=1;startSize=26;fillColor=#dae8fc;horizontalStack=0;resizeParent=1;resizeLast=0;collapsible=1;marginBottom=0;swimlaneFillColor=#ffffff;align=center;rounded=1;shadow=0;comic=0;labelBackgroundColor=none;strokeWidth=1;fontFamily=Verdana;fontSize=12;strokeColor=#6c8ebf;" vertex="1" parent="1">
          <mxGeometry x="770" y="274.33" width="180" height="82" as="geometry" />
        </mxCell>
        <mxCell id="7GXzpe08TrqEnxRHHlQo-29" value="橋脚下面の変位" style="text;html=1;strokeColor=none;fillColor=none;spacingLeft=4;spacingRight=4;whiteSpace=wrap;overflow=hidden;rotatable=0;points=[[0,0.5],[1,0.5]];portConstraint=eastwest;" vertex="1" parent="7GXzpe08TrqEnxRHHlQo-28">
          <mxGeometry y="26" width="180" height="26" as="geometry" />
        </mxCell>
        <mxCell id="7GXzpe08TrqEnxRHHlQo-44" value="長大・熊本耐震" style="text;html=1;strokeColor=#9673a6;fillColor=#e1d5e7;spacingLeft=4;spacingRight=4;whiteSpace=wrap;overflow=hidden;rotatable=0;points=[[0,0.5],[1,0.5]];portConstraint=eastwest;labelBorderColor=none;textShadow=0;labelBackgroundColor=none;fontStyle=1;fontSize=20;" vertex="1" parent="1">
          <mxGeometry x="10" y="10" width="160" height="40" as="geometry" />
        </mxCell>
        <mxCell id="7GXzpe08TrqEnxRHHlQo-45" value="" style="edgeStyle=orthogonalEdgeStyle;rounded=0;orthogonalLoop=1;jettySize=auto;html=1;" edge="1" parent="1" source="NJcOnecQ_KUzRi99oX8J-12" target="NJcOnecQ_KUzRi99oX8J-14">
          <mxGeometry relative="1" as="geometry" />
        </mxCell>
      </root>
    </mxGraphModel>
  </diagram>
</mxfile>
